<mxfile host="Electron" agent="Mozilla/5.0 (Windows NT 10.0; Win64; x64) AppleWebKit/537.36 (KHTML, like Gecko) draw.io/24.7.17 Chrome/128.0.6613.36 Electron/32.0.1 Safari/537.36" version="24.7.17">
  <diagram name="Pagina-1" id="tFbASED2w19gvKj5_k6L">
    <mxGraphModel dx="979" dy="567" grid="1" gridSize="10" guides="1" tooltips="1" connect="1" arrows="1" fold="1" page="1" pageScale="1" pageWidth="827" pageHeight="1169" math="1" shadow="0">
      <root>
        <mxCell id="0" />
        <mxCell id="1" parent="0" />
        <mxCell id="dRSo_QXNcY_pDvFaYQ_6-12" value="Esempio di compressione" style="text;html=1;align=center;verticalAlign=middle;whiteSpace=wrap;rounded=0;fontFamily=Times New Roman;" vertex="1" parent="1">
          <mxGeometry x="470" y="190" width="90" height="30" as="geometry" />
        </mxCell>
        <mxCell id="dRSo_QXNcY_pDvFaYQ_6-18" value="" style="group" vertex="1" connectable="0" parent="1">
          <mxGeometry x="240" y="240" width="550" height="80" as="geometry" />
        </mxCell>
        <mxCell id="dRSo_QXNcY_pDvFaYQ_6-9" style="edgeStyle=orthogonalEdgeStyle;rounded=1;orthogonalLoop=1;jettySize=auto;html=1;entryX=0;entryY=0.5;entryDx=0;entryDy=0;curved=0;" edge="1" parent="dRSo_QXNcY_pDvFaYQ_6-18" source="dRSo_QXNcY_pDvFaYQ_6-1" target="dRSo_QXNcY_pDvFaYQ_6-2">
          <mxGeometry relative="1" as="geometry" />
        </mxCell>
        <mxCell id="dRSo_QXNcY_pDvFaYQ_6-1" value="\(x\)" style="ellipse;whiteSpace=wrap;html=1;aspect=fixed;fillColor=#d5e8d4;fontSize=23;strokeColor=#82b366;" vertex="1" parent="dRSo_QXNcY_pDvFaYQ_6-18">
          <mxGeometry y="40" width="40" height="40" as="geometry" />
        </mxCell>
        <mxCell id="dRSo_QXNcY_pDvFaYQ_6-10" style="edgeStyle=orthogonalEdgeStyle;rounded=1;orthogonalLoop=1;jettySize=auto;html=1;entryX=0.5;entryY=0;entryDx=0;entryDy=0;curved=0;" edge="1" parent="dRSo_QXNcY_pDvFaYQ_6-18" source="dRSo_QXNcY_pDvFaYQ_6-2" target="dRSo_QXNcY_pDvFaYQ_6-3">
          <mxGeometry relative="1" as="geometry">
            <Array as="points">
              <mxPoint x="100" y="20" />
            </Array>
          </mxGeometry>
        </mxCell>
        <mxCell id="dRSo_QXNcY_pDvFaYQ_6-2" value="\(y\)" style="ellipse;whiteSpace=wrap;html=1;aspect=fixed;fillColor=#d5e8d4;fontSize=23;strokeColor=#82b366;" vertex="1" parent="dRSo_QXNcY_pDvFaYQ_6-18">
          <mxGeometry x="40" width="40" height="40" as="geometry" />
        </mxCell>
        <mxCell id="dRSo_QXNcY_pDvFaYQ_6-11" style="edgeStyle=orthogonalEdgeStyle;rounded=0;orthogonalLoop=1;jettySize=auto;html=1;entryX=1;entryY=0.5;entryDx=0;entryDy=0;" edge="1" parent="dRSo_QXNcY_pDvFaYQ_6-18" source="dRSo_QXNcY_pDvFaYQ_6-3" target="dRSo_QXNcY_pDvFaYQ_6-1">
          <mxGeometry relative="1" as="geometry" />
        </mxCell>
        <mxCell id="dRSo_QXNcY_pDvFaYQ_6-14" style="edgeStyle=orthogonalEdgeStyle;rounded=0;orthogonalLoop=1;jettySize=auto;html=1;entryX=0;entryY=0.5;entryDx=0;entryDy=0;curved=1;" edge="1" parent="dRSo_QXNcY_pDvFaYQ_6-18" source="dRSo_QXNcY_pDvFaYQ_6-3" target="dRSo_QXNcY_pDvFaYQ_6-4">
          <mxGeometry relative="1" as="geometry" />
        </mxCell>
        <mxCell id="dRSo_QXNcY_pDvFaYQ_6-3" value="\(x\)" style="ellipse;whiteSpace=wrap;html=1;aspect=fixed;fillColor=#d5e8d4;fontSize=23;strokeColor=#82b366;" vertex="1" parent="dRSo_QXNcY_pDvFaYQ_6-18">
          <mxGeometry x="80" y="40" width="40" height="40" as="geometry" />
        </mxCell>
        <mxCell id="dRSo_QXNcY_pDvFaYQ_6-6" style="edgeStyle=orthogonalEdgeStyle;rounded=1;orthogonalLoop=1;jettySize=auto;html=1;entryX=0.5;entryY=0;entryDx=0;entryDy=0;curved=0;" edge="1" parent="dRSo_QXNcY_pDvFaYQ_6-18" source="dRSo_QXNcY_pDvFaYQ_6-4" target="dRSo_QXNcY_pDvFaYQ_6-5">
          <mxGeometry relative="1" as="geometry">
            <Array as="points">
              <mxPoint x="220" />
              <mxPoint x="290" />
            </Array>
          </mxGeometry>
        </mxCell>
        <mxCell id="dRSo_QXNcY_pDvFaYQ_6-4" value="\(v\)" style="ellipse;whiteSpace=wrap;html=1;aspect=fixed;fillColor=#e1d5e7;fontSize=23;strokeColor=#9673a6;" vertex="1" parent="dRSo_QXNcY_pDvFaYQ_6-18">
          <mxGeometry x="200" y="20" width="40" height="40" as="geometry" />
        </mxCell>
        <mxCell id="dRSo_QXNcY_pDvFaYQ_6-7" style="edgeStyle=orthogonalEdgeStyle;rounded=1;orthogonalLoop=1;jettySize=auto;html=1;entryX=0.5;entryY=1;entryDx=0;entryDy=0;curved=0;" edge="1" parent="dRSo_QXNcY_pDvFaYQ_6-18" source="dRSo_QXNcY_pDvFaYQ_6-5" target="dRSo_QXNcY_pDvFaYQ_6-4">
          <mxGeometry relative="1" as="geometry">
            <Array as="points">
              <mxPoint x="290" y="80" />
              <mxPoint x="220" y="80" />
            </Array>
          </mxGeometry>
        </mxCell>
        <mxCell id="dRSo_QXNcY_pDvFaYQ_6-5" value="\(w\)" style="ellipse;whiteSpace=wrap;html=1;aspect=fixed;fillColor=#e1d5e7;fontSize=23;strokeColor=#9673a6;" vertex="1" parent="dRSo_QXNcY_pDvFaYQ_6-18">
          <mxGeometry x="270" y="20" width="40" height="40" as="geometry" />
        </mxCell>
        <mxCell id="dRSo_QXNcY_pDvFaYQ_6-13" value="" style="shape=flexArrow;endArrow=classic;html=1;rounded=0;" edge="1" parent="dRSo_QXNcY_pDvFaYQ_6-18">
          <mxGeometry width="50" height="50" relative="1" as="geometry">
            <mxPoint x="330" y="40" as="sourcePoint" />
            <mxPoint x="410" y="40" as="targetPoint" />
          </mxGeometry>
        </mxCell>
        <mxCell id="dRSo_QXNcY_pDvFaYQ_6-17" style="edgeStyle=orthogonalEdgeStyle;rounded=0;orthogonalLoop=1;jettySize=auto;html=1;" edge="1" parent="dRSo_QXNcY_pDvFaYQ_6-18" source="dRSo_QXNcY_pDvFaYQ_6-15" target="dRSo_QXNcY_pDvFaYQ_6-16">
          <mxGeometry relative="1" as="geometry" />
        </mxCell>
        <mxCell id="dRSo_QXNcY_pDvFaYQ_6-15" value="\(C_1\)" style="ellipse;whiteSpace=wrap;html=1;aspect=fixed;fillColor=#d5e8d4;fontSize=23;strokeColor=#82b366;" vertex="1" parent="dRSo_QXNcY_pDvFaYQ_6-18">
          <mxGeometry x="440" y="20" width="40" height="40" as="geometry" />
        </mxCell>
        <mxCell id="dRSo_QXNcY_pDvFaYQ_6-16" value="\(C_2\)" style="ellipse;whiteSpace=wrap;html=1;aspect=fixed;fillColor=#e1d5e7;fontSize=23;strokeColor=#9673a6;" vertex="1" parent="dRSo_QXNcY_pDvFaYQ_6-18">
          <mxGeometry x="510" y="20" width="40" height="40" as="geometry" />
        </mxCell>
      </root>
    </mxGraphModel>
  </diagram>
</mxfile>
